<svg xmlns="http://www.w3.org/2000/svg" width="24" height="24" viewBox="0 0 24 24"><path fill="#FFF" fill-rule="evenodd" d="M16.25,5 C18.3210678,5 20,6.67893219 20,8.75 L20,13.75 C20,15.8210678 18.3210678,17.5 16.25,17.5 L13.81,17.5 L14.828,18.518 C15.0144738,18.6931942 15.0990747,18.9511817 15.0525573,19.2027799 C15.00604,19.454378 14.8347877,19.6650615 14.598,19.762 C14.3099311,19.8785367 13.979832,19.8053581 13.768,19.578 L10.939,16.75 L13.768,13.922 C13.9431942,13.7355262 14.2011817,13.6509253 14.4527799,13.6974427 C14.704378,13.74396 14.9150615,13.9152123 15.012,14.152 C15.1285367,14.4400689 15.0553581,14.770168 14.828,14.982 L13.81,16 L16.25,16 C17.4926407,16 18.5,14.9926407 18.5,13.75 L18.5,8.75 C18.5,7.50735931 17.4926407,6.5 16.25,6.5 L7.75,6.5 C6.50735931,6.5 5.5,7.50735931 5.5,8.75 L5.5,13.75 C5.5,14.3467371 5.73705289,14.9190334 6.15900974,15.3409903 C6.58096659,15.7629471 7.1532629,16 7.75,16 L9,16 L9,17.5 L7.75,17.5 C5.67893219,17.5 4,15.8210678 4,13.75 L4,8.75 C4,6.67893219 5.67893219,5 7.75,5 L16.25,5 Z"/></svg>