<svg xmlns="http://www.w3.org/2000/svg" width="24" height="24" viewBox="0 0 24 24"><g fill="#1ED760" fill-rule="evenodd" transform="translate(0 4.002)"><path fill-rule="nonzero" d="M16.25,1 C18.3210678,1 20,2.67893219 20,4.75 L20,9.75 C20,11.8210678 18.3210678,13.5 16.25,13.5 L13.81,13.5 L14.828,14.518 C15.0694929,14.7505086 15.1281997,15.1146611 14.9720103,15.411282 C14.8158209,15.7079028 14.4823533,15.8655511 14.154,15.798 C14.0060669,15.7653349 13.8714941,15.6886354 13.768,15.578 L10.939,12.75 L13.768,9.922 C13.9857527,9.72393686 14.2988568,9.6707007 14.5698329,9.78566676 C14.840809,9.90063281 15.0201071,10.1627788 15.029,10.457 C15.032557,10.651248 14.9608976,10.8393537 14.829,10.982 L13.808,12 L16.249,12 C16.8457371,12 17.4180334,11.7629471 17.8399903,11.3409903 C18.2619471,10.9190334 18.499,10.3467371 18.499,9.75 L18.499,4.75 C18.499,4.1532629 18.2619471,3.58096659 17.8399903,3.15900974 C17.4180334,2.73705289 16.8457371,2.5 16.249,2.5 L15.499,2.5 L15.499,1 L16.25,1 Z M8.5,2.5 L7.75,2.5 C6.50735931,2.5 5.5,3.50735931 5.5,4.75 L5.5,9.75 C5.5,10.3467371 5.73705289,10.9190334 6.15900974,11.3409903 C6.58096659,11.7629471 7.1532629,12 7.75,12 L9,12 L9,13.5 L7.75,13.5 C5.67893219,13.5 4,11.8210678 4,9.75 L4,4.75 C4,2.67893219 5.67893219,1 7.75,1 L8.5,1 L8.5,2.5 Z"/><path d="M13.505,8 L12,8 L12,2.544 L10.096,2.544 L10.096,1.488 C10.793,1.438 11.296,1.308 11.602,1.103 C11.918,0.897 12.112,0.593 12.185,0.188 L13.505,0.188 L13.505,8 Z"/></g></svg>