<svg xmlns="http://www.w3.org/2000/svg" width="144" height="144" fill="none" viewBox="0 0 144 144"><g fill="#1ed760"><path d="M89 44a15 15 0 0 1 10.6 4.4A15 15 0 0 1 104 59v20a15 15 0 0 1-15 15h-9.76l4.07 4.07a3 3 0 0 1 .96 2.15 3 3 0 0 1-.88 2.17 3 3 0 0 1-2.17.88 3 3 0 0 1-2.15-.96L67.76 91l11.31-11.31a3 3 0 0 1 4.24 4.24L79.24 88H89a9 9 0 0 0 9-9V59a9 9 0 0 0-9-9h-3v-6zm-31 6h-3a9 9 0 0 0-9 9v20a9 9 0 0 0 9 9h5v6h-5a15 15 0 0 1-10.6-4.4A15 15 0 0 1 40 79V59a15 15 0 0 1 4.4-10.6A15 15 0 0 1 55 44h3z"/><path d="M78.02 72H72V50.18h-7.62v-4.23q4.2-.3 6.03-1.54 1.9-1.23 2.33-3.65h5.28zM72 136a8 8 0 1 0 0-16 8 8 0 0 0 0 16"/></g></svg>