<svg xmlns="http://www.w3.org/2000/svg" width="144" height="144" fill="none" viewBox="0 0 144 144"><g opacity="0.5" fill="#fff"><path d="M91.63 43q.56.25.97.69L103.92 55 92.6 66.31a3 3 0 0 1-4.24-4.24L92.43 58h-7.79a9 9 0 0 0-6.9 3.22L53.07 90.64A15 15 0 0 1 41.56 96H40v-6h1.56a9 9 0 0 0 6.9-3.22l24.69-29.42A15 15 0 0 1 84.64 52h7.8l-4.08-4.07a3 3 0 0 1 3.27-4.94M40 54h1.56a9 9 0 0 1 6.9 3.22l7.18 8.56 3.92-4.67-6.5-7.75A15 15 0 0 0 41.56 48H40z"/><path d="M73.92 78.22 70 82.9l3.15 3.75A15 15 0 0 0 84.64 92h7.8l-4.08 4.07a3 3 0 1 0 4.24 4.24L103.92 89 92.6 77.69a3 3 0 0 0-5.19 2.1 3 3 0 0 0 .95 2.14L92.43 86h-7.79a9 9 0 0 1-6.9-3.22z"/></g></svg>