<svg xmlns="http://www.w3.org/2000/svg" width="64" height="64" fill="none" viewBox="0 0 64 64"><path fill="#fff" d="M51.63 3a3 3 0 0 1 .97.69L63.92 15 52.6 26.31a3 3 0 0 1-4.24-4.24L52.43 18h-7.79a9 9 0 0 0-6.9 3.22L13.07 50.64A15 15 0 0 1 1.56 56H0v-6h1.56a9 9 0 0 0 6.9-3.22l24.69-29.42A15 15 0 0 1 44.64 12h7.8l-4.08-4.07a3 3 0 0 1 3.27-4.94M0 14h1.56a9 9 0 0 1 6.9 3.22l7.18 8.56 3.92-4.67-6.5-7.75A15 15 0 0 0 1.56 8H0z"/><path fill="#fff" d="M33.92 38.22 30 42.9l3.15 3.75A15 15 0 0 0 44.64 52h7.8l-4.08 4.07a3 3 0 1 0 4.24 4.24L63.92 49 52.6 37.69a3 3 0 0 0-5.19 2.1 3 3 0 0 0 .95 2.14L52.43 46h-7.79a9 9 0 0 1-6.9-3.22z"/></svg>