<svg xmlns="http://www.w3.org/2000/svg" width="24" height="24" viewBox="0 0 24 24"><path fill="#FFF" fill-rule="evenodd" d="M16.615,13.1839678 C16.8185388,13.18741 17.0119739,13.2733009 17.151,13.422 L19.981,16.25 L17.151,19.078 C16.9385806,19.3043288 16.6091663,19.3773556 16.321,19.262 C16.0834144,19.1658872 15.9113561,18.9551096 15.864761,18.7030908 C15.8181659,18.451072 15.9034858,18.1927084 16.091,18.018 L17.109,17 L15.16,17 C14.0513361,16.9999861 12.9995013,16.5093983 12.287,15.66 L11.5,14.723 L12.48,13.556 L13.437,14.696 C13.8645457,15.2056926 14.4957317,15.5000508 15.161,15.5 L17.108,15.5 L16.091,14.482 C15.8665212,14.2694311 15.7950099,13.941136 15.9107402,13.6544606 C16.0264705,13.3677852 16.3058591,13.1811477 16.615,13.1839678 Z M17.151,4.922 L19.981,7.75 L17.151,10.578 C16.8536285,10.8403381 16.4035391,10.8262659 16.1231366,10.5458634 C15.8427341,10.2654609 15.8286619,9.81537149 16.091,9.518 L17.108,8.5 L15.161,8.5 C14.4957317,8.49994923 13.8645457,8.79430744 13.437,9.304 L7.264,16.66 C6.551102,17.5094422 5.49895245,18 4.39,18 L4,18 L4,16.5 L4.39,16.5 C5.05520715,16.4997752 5.68628245,16.2054686 6.114,15.696 L12.287,8.34 C12.9995013,7.49060172 14.0513361,7.00001394 15.16,7 L17.11,7 L16.09,5.982 C15.8925384,5.79789082 15.8092656,5.52186074 15.8719655,5.259266 C15.9346655,4.99667126 16.1336615,4.7880387 16.393,4.713 C16.6648618,4.6340227 16.958029,4.71485641 17.151,4.922 Z M4.39,6 C5.49895245,6 6.551102,6.49055785 7.264,7.34 L8.89,9.277 L7.91,10.444 L6.114,8.304 C5.68645427,7.79430744 5.05526826,7.49994923 4.39,7.5 L4,7.5 L4,6 L4.39,6 Z"/></svg>