<svg xmlns="http://www.w3.org/2000/svg" width="24" height="24" viewBox="0 0 24 24"><path fill="#1ED760" d="M16.615,13.182 C16.8188367,13.1859295 17.0123163,13.2725622 17.151,13.422 L19.981,16.25 L17.151,19.078 C16.9753293,19.2634467 16.7177117,19.34734 16.4665267,19.300899 C16.2153417,19.2544581 16.0047507,19.0839989 15.907,18.848 C15.8319454,18.6590933 15.8359087,18.4479569 15.918,18.262 C15.958,18.17 16.018,18.087 16.091,18.018 L17.109,17 L15.16,17 C14.0513361,16.9999861 12.9995013,16.5093983 12.287,15.66 L11.5,14.722 L12.48,13.557 L13.437,14.697 C13.8649081,15.2060957 14.4959558,15.5000234 15.161,15.5 L17.108,15.5 L16.091,14.482 C15.9050843,14.3063581 15.8208826,14.0484446 15.8673458,13.7969374 C15.9138089,13.5454301 16.0846015,13.334624 16.321,13.237 C16.4143133,13.1991132 16.5143012,13.180408 16.615,13.182 Z M16.615,4.68193965 C16.818811,4.68604417 17.0122479,4.77265769 17.151,4.922 L19.981,7.75 L17.151,10.578 C16.8536285,10.8403381 16.4035391,10.8262659 16.1231366,10.5458634 C15.8427341,10.2654609 15.8286619,9.81537149 16.091,9.518 L17.108,8.5 L15.161,8.5 C14.4957317,8.49994923 13.8645457,8.79430744 13.437,9.304 L7.264,16.66 C6.55127396,17.5096663 5.49901357,18.0002818 4.39,18.0000001 L4,18.0000001 L4,16.5 L4.39,16.5 C5.05526826,16.5000508 5.68645427,16.2056926 6.114,15.696 L12.287,8.34 C12.9996732,7.49082567 14.0513973,7.00028954 15.16,7 L17.11,7 L16.09,5.982 C15.864531,5.76905812 15.7919825,5.44001298 15.907,5.152 C16.0238311,4.86459491 16.3047809,4.67808867 16.615,4.68193965 Z M4.39,6 C5.5,6 6.55,6.49 7.264,7.34 L8.89,9.277 L7.91,10.444 L6.114,8.304 C5.68628245,7.79453136 5.05520715,7.50022478 4.39,7.5 L4,7.5 L4,6 L4.39,6 Z"/></svg>